<svg class="icon-phone" xmlns="http://www.w3.org/2000/svg" viewBox="0 0 100 100">
  <path d="M50,100A50.013,50.013,0,0,1,30.538,3.929,50.013,50.013,0,0,1,69.462,96.071,49.686,49.686,0,0,1,50,100ZM31.665,18a15.3,15.3,0,0,0-3.254.462,18.443,18.443,0,0,0-3.163.969c-1.531.643-3.178,2.538-4.893,5.632a17.106,17.106,0,0,0-2.192,11.011,19.9,19.9,0,0,0,.577,2.654c.275.979.5,1.717.669,2.193.18.505.508,1.391.947,2.561.469,1.25.74,1.99.831,2.263a41.984,41.984,0,0,0,3.832,8.078,68.787,68.787,0,0,0,9.949,12.211,68.829,68.829,0,0,0,12.21,9.949,42.033,42.033,0,0,0,8.078,3.831c.286.1,1.069.383,2.263.831,1.258.472,2.1.781,2.562.947s1.212.394,2.192.67a20.191,20.191,0,0,0,2.655.577,17.122,17.122,0,0,0,11.01-2.193c3.094-1.716,4.989-3.362,5.632-4.893a18.444,18.444,0,0,0,.969-3.163A15.3,15.3,0,0,0,83,69.335a2.588,2.588,0,0,0-.139-.969c-.184-.552-1.364-1.375-3.508-2.447-.595-.344-1.433-.81-2.493-1.384-1.037-.563-2.023-1.107-2.931-1.616-.864-.485-1.7-.966-2.47-1.431-.128-.1-.528-.375-1.155-.808a12.976,12.976,0,0,0-1.639-.992,3.012,3.012,0,0,0-1.316-.323,3.851,3.851,0,0,0-2.308,1.315A22.54,22.54,0,0,0,62.5,63.542,27.982,27.982,0,0,1,60.056,66.4a3.529,3.529,0,0,1-2.124,1.316,3.14,3.14,0,0,1-1.039-.231,9.937,9.937,0,0,1-.946-.392c-.212-.1-.574-.316-1.108-.646s-.815-.5-.877-.531a48.682,48.682,0,0,1-10.849-8.033,48.683,48.683,0,0,1-8.033-10.849c-.03-.06-.2-.339-.531-.878-.321-.519-.538-.892-.646-1.108a9.975,9.975,0,0,1-.392-.946,3.14,3.14,0,0,1-.231-1.039A3.539,3.539,0,0,1,34.6,40.944,28.087,28.087,0,0,1,37.458,38.5a22.617,22.617,0,0,0,2.863-2.54,3.849,3.849,0,0,0,1.316-2.308,3.031,3.031,0,0,0-.323-1.316,12.988,12.988,0,0,0-.993-1.639c-.471-.682-.72-1.038-.808-1.154-.46-.766-.941-1.6-1.431-2.471-.5-.9-1.046-1.881-1.615-2.931-.58-1.068-1.046-1.906-1.385-2.493-1.073-2.144-1.9-3.325-2.447-3.508A2.588,2.588,0,0,0,31.665,18Z"/>
</svg>
