<svg class="logo-facebook" xmlns="http://www.w3.org/2000/svg" xmlns:xlink="http://www.w3.org/1999/xlink" viewBox="0 0 300 110">
  <g id="Component">
    <rect id="Rectangle_4" data-name="Rectangle 4" width="300" height="110" rx="20" fill="#3b5998"/>
    <path id="Rectangle_9" data-name="Rectangle 9" d="M0,0H300a0,0,0,0,1,0,0V10a20,20,0,0,1-20,20H20A20,20,0,0,1,0,10V0A0,0,0,0,1,0,0Z" transform="translate(0 80)" fill="#8b9dc3"/>
    <g id="Group_88" data-name="Group 88" transform="translate(-1300 -700)">
      <path id="Path_123" data-name="Path 123" d="M21.055-12.471h8.037L31.6-20.1l2.467,7.626H42.1l-6.5,4.71L38.064-.1,31.6-4.808,25.092-.1l2.467-7.664Z" transform="translate(1366 805.128)" fill="#fff"/>
      <path id="Path_123-2" data-name="Path 123" d="M21.055-12.471h8.037L31.6-20.1l2.467,7.626H42.1l-6.5,4.71L38.064-.1,31.6-4.808,25.092-.1l2.467-7.664Z" transform="translate(1389.471 805.128)" fill="#fff"/>
      <path id="Path_123-3" data-name="Path 123" d="M21.055-12.471h8.037L31.6-20.1l2.467,7.626H42.1l-6.5,4.71L38.064-.1,31.6-4.808,25.092-.1l2.467-7.664Z" transform="translate(1412.942 805.128)" fill="#fff"/>
      <path id="Path_123-4" data-name="Path 123" d="M21.055-12.471h8.037L31.6-20.1l2.467,7.626H42.1l-6.5,4.71L38.064-.1,31.6-4.808,25.092-.1l2.467-7.664Z" transform="translate(1436.412 805.128)" fill="#fff"/>
      <path id="Path_123-5" data-name="Path 123" d="M21.055-12.471h8.037L31.6-20.1l2.467,7.626H42.1l-6.5,4.71L38.064-.1,31.6-4.808,25.092-.1l2.467-7.664Z" transform="translate(1459.883 805.128)" fill="#fff"/>
    </g>
    <g id="Group_90" data-name="Group 90" transform="translate(-1300 -700)">
      <g id="Group_87" data-name="Group 87" transform="translate(-21)">
        <path id="Path_120" data-name="Path 120" d="M469.693,234.816l-1.611.5,1.016,1.346a3.5,3.5,0,0,1-2.222,5.571l-1.611.269.753,1.449a3.5,3.5,0,0,1-2.892,5.111l-20.258.009a7.524,7.524,0,0,1-4.306-1.576,4.753,4.753,0,0,0-1.124-.737l-.439-.2V227.839l2.112-1.806,7.13-13.21a5.874,5.874,0,0,0,.835-3.5l-.564-7.414a3.277,3.277,0,0,1,1.62-.429c3.078,0,5.716,4.918,5.716,8.943a11.08,11.08,0,0,1-.127,1.669l-1.238,8.028h15.457a3.811,3.811,0,0,1,2.675,1.129,3.386,3.386,0,0,1,1.016,2.413,3.489,3.489,0,0,1-1.4,2.773l-1.437,1.09,1.569.889a3.513,3.513,0,0,1-.677,6.413Z" transform="translate(1129.387 517.505)" fill="#fff"/>
        <path id="Path_121" data-name="Path 121" d="M301.668,379.983a.077.077,0,0,0-.077.067v27.539a.076.076,0,0,0,.077.066h15.861a.076.076,0,0,0,.077-.066V380.047a.077.077,0,0,0-.077-.067Z" transform="translate(1248.598 361.677)" fill="#dfe3ee"/>
        <path id="Path_122" data-name="Path 122" d="M348.159,215.057a5.9,5.9,0,0,0-1.778-4.208,5.834,5.834,0,0,0,1.252-3.586,5.743,5.743,0,0,0-1.711-4.1,6.2,6.2,0,0,0-4.361-1.832H328.882l.817-5.292a13.548,13.548,0,0,0,.154-2.032c0-5.233-3.534-11.319-8.09-11.319a5.655,5.655,0,0,0-3.615,1.31l-.47.391.662,8.7a3.507,3.507,0,0,1-.508,2.107l-6.968,12.915-.26.224a2.444,2.444,0,0,0-2.413-2.086H294.68a2.443,2.443,0,0,0-2.44,2.44v25.484a2.443,2.443,0,0,0,2.44,2.44h13.511a2.443,2.443,0,0,0,2.436-2.44v-1.284l.019.015a9.863,9.863,0,0,0,5.843,2.142h0l20.3-.008h.065a5.881,5.881,0,0,0,5.4-7.258,5.887,5.887,0,0,0,3.1-7.695A5.861,5.861,0,0,0,348.159,215.057Zm-39.9,19.115a.071.071,0,0,1-.066.066H294.68a.07.07,0,0,1-.065-.066V208.688a.07.07,0,0,1,.065-.066h13.511a.071.071,0,0,1,.066.066Zm35.063-15.759-1.611.5,1.016,1.346a3.5,3.5,0,0,1-2.222,5.571l-1.611.269.753,1.449a3.5,3.5,0,0,1-2.892,5.111l-20.258.009a7.524,7.524,0,0,1-4.306-1.576,4.754,4.754,0,0,0-1.124-.737l-.439-.2V211.436l2.112-1.806,7.13-13.21a5.875,5.875,0,0,0,.835-3.5l-.564-7.414a3.277,3.277,0,0,1,1.619-.429c3.078,0,5.716,4.918,5.716,8.943a11.072,11.072,0,0,1-.127,1.669l-1.238,8.028h15.457a3.811,3.811,0,0,1,2.675,1.129,3.386,3.386,0,0,1,1.016,2.413,3.489,3.489,0,0,1-1.4,2.773l-1.437,1.09,1.569.889a3.513,3.513,0,0,1-.677,6.413Z" transform="translate(1255.76 533.908)" fill="#8b9dc3"/>
      </g>
      <text id="Read_Our_Reviews_On" data-name="Read Our Reviews On" transform="translate(1346 725)" fill="#fff" font-size="20" font-family="Roboto-Medium, Roboto" font-weight="500"><tspan x="0" y="0">Read Our Reviews On</tspan></text>
      <g id="Group_89" data-name="Group 89" transform="translate(-11)">
        <path id="Path_165" data-name="Path 165" d="M18.45-34.6a25.1,25.1,0,0,0-5.5-.7c-5.9,0-8.25,2.8-8.25,7.8v3.65H1v5.9H4.7V0h7.2V-17.95h5.25l.5-5.9H11.9V-26.7c0-1.6.15-2.6,2.45-2.6a18.931,18.931,0,0,1,3.2.35ZM40.15,0V-15.55c0-6.75-1.85-9.3-10.3-9.3a34.25,34.25,0,0,0-8.75,1.2l.95,5.4a34.079,34.079,0,0,1,6.6-.7c3.85,0,4.3.85,4.3,3.35v1.85H27.7c-5,0-7.25,1.95-7.25,6.85C20.45-2.75,22.3.5,26.8.5a14.916,14.916,0,0,0,6.95-2.05L34.25,0Zm-7.2-5.95a8.188,8.188,0,0,1-3.65.85c-1.4,0-1.95-.55-1.95-1.9s.6-1.75,2.15-1.75h3.45Zm18.9-9.1c0-2.5,1.05-3.65,3.95-3.65a25.241,25.241,0,0,1,5,.6l.9-6a25.953,25.953,0,0,0-5.9-.75c-7.9,0-11.15,2.95-11.15,9.9V-9.4C44.65-2.45,47.9.5,55.8.5a25.953,25.953,0,0,0,5.9-.75l-.9-6a20.741,20.741,0,0,1-5,.6c-2.9,0-3.95-1.15-3.95-3.65Zm33.4,5.4v-5.1c0-5.3-1.75-10.1-9.85-10.1s-10.45,4.5-10.45,9.75v5.7c0,6,3,9.9,10.9,9.9A29,29,0,0,0,85-1.05l-1.05-5.4a28.44,28.44,0,0,1-7.4,1.05c-3.3,0-4.4-.75-4.4-3.55v-.7Zm-6.8-5.4h-6.3V-16.1c0-1.7.8-3.1,3.3-3.1s3,1.4,3,3.1Zm33.65,5.3v-6.3c0-5.45-2.1-8.8-7.5-8.8a19.031,19.031,0,0,0-6.9,1.35V-35.3l-7.2,1v34a67.262,67.262,0,0,0,9.9.8C110.45.5,112.1-3.95,112.1-9.75Zm-14.4-7.5a10.66,10.66,0,0,1,4.6-1.35,2.283,2.283,0,0,1,2.6,2.6v6.3c0,2.3-.65,3.95-4.25,3.95-1,0-1.9,0-2.95-.1ZM127.1.5c8.65,0,11-4.85,11-9.85V-15c0-5-2.35-9.85-11-9.85s-11,4.85-11,9.85v5.65C116.1-4.35,118.45.5,127.1.5Zm0-6.05c-2.6,0-3.8-1.3-3.8-3.6V-15.2c0-2.3,1.2-3.6,3.8-3.6s3.8,1.3,3.8,3.6v6.05C130.9-6.85,129.7-5.55,127.1-5.55ZM153.1.5c8.65,0,11-4.85,11-9.85V-15c0-5-2.35-9.85-11-9.85s-11,4.85-11,9.85v5.65C142.1-4.35,144.45.5,153.1.5Zm0-6.05c-2.6,0-3.8-1.3-3.8-3.6V-15.2c0-2.3,1.2-3.6,3.8-3.6s3.8,1.3,3.8,3.6v6.05C156.9-6.85,155.7-5.55,153.1-5.55ZM176.55,0V-35.3l-7.2,1V0Zm.95-12.25L184,0h7.7L185-12.25l6.4-12.1h-7.7Z" transform="translate(1332 770)" fill="#fff"/>
        <text id="_" data-name="®" transform="translate(1525 770)" fill="#fff" font-size="10" font-family="Roboto-Medium, Roboto" font-weight="500"><tspan x="0" y="0">®</tspan></text>
      </g>
    </g>
  </g>
</svg>
