<svg class="logo-rcpw" xmlns="http://www.w3.org/2000/svg" xmlns:xlink="http://www.w3.org/1999/xlink" viewBox="0 0 322 322">
  <defs>
    <linearGradient id="linear-gradient" x1="0.5" x2="0.5" y2="1" gradientUnits="objectBoundingBox">
      <stop offset="0" stop-color="#fff"/>
      <stop offset="0.278" stop-color="#a1a6ba"/>
      <stop offset="1" stop-color="#0c132d"/>
    </linearGradient>
    <linearGradient id="linear-gradient-2" x1="0.5" y1="1" x2="0.5" gradientUnits="objectBoundingBox">
      <stop offset="0" stop-color="#fff"/>
      <stop offset="0.602" stop-color="#a1a6ba"/>
      <stop offset="0.82" stop-color="#00aeef"/>
      <stop offset="1" stop-color="#0c132d"/>
    </linearGradient>
    <linearGradient id="linear-gradient-3" x1="0.5" x2="0.5" y2="1" gradientUnits="objectBoundingBox">
      <stop offset="0" stop-color="#fff"/>
      <stop offset="0.528" stop-color="#00aeef"/>
      <stop offset="1" stop-color="#262262"/>
    </linearGradient>
  </defs>
  <path id="Path_175" data-name="Path 175" d="M361,200A161,161,0,1,0,522,361,160.995,160.995,0,0,0,361,200Z" transform="translate(-200 -200)" fill="url(#linear-gradient)"/>
  <path id="Path_176" data-name="Path 176" d="M508.636,357.329A151.308,151.308,0,1,1,357.328,206.018,151.3,151.3,0,0,1,508.636,357.329Z" transform="translate(-196.328 -196.329)" stroke="#e4e3ef" stroke-miterlimit="10" stroke-width="1" fill="url(#linear-gradient-2)"/>
  <path id="Path_177" data-name="Path 177" d="M497.328,354.222A143.107,143.107,0,1,1,354.22,211.112,143.12,143.12,0,0,1,497.328,354.222Z" transform="translate(-193.22 -193.222)" fill="url(#linear-gradient-3)"/>
  <path id="Path_178" data-name="Path 178" d="M290.8,260.281" transform="translate(-144.609 -163.229)" fill="#262262"/>
  <path id="Path_179" data-name="Path 179" d="M208.93,287.632a143.113,143.113,0,0,0-1.43,21.2c1.265,79.548,64.44,143.11,143.129,143.11s143.145-64.092,143.145-143.127a143.81,143.81,0,0,0-1.318-21.161Z" transform="translate(-189.629 -146.383)" fill="#0c132d"/>
  <g id="Group_108" data-name="Group 108" transform="translate(34.621 158.125)">
    <g id="Group_106" data-name="Group 106" transform="translate(0 0)">
      <path id="Path_194" data-name="Path 194" d="M221.5,327.22V298.544h6.3a36.484,36.484,0,0,1,6.688.4,5.955,5.955,0,0,1,3.677,2.494,9.762,9.762,0,0,1,1.34,5.667c0,2.383-.332,3.951-1.043,4.936a3.8,3.8,0,0,1-.407.473c.026.029.051.06.076.089a5.4,5.4,0,0,1,1.166,2.149,20.416,20.416,0,0,1,.209,4.143v8.324h-18Z" transform="translate(-221.504 -298.013)" fill="#0c132d"/>
      <rect id="Rectangle_29" data-name="Rectangle 29" width="9.761" height="28.676" transform="translate(17.155 0.533)" fill="#0c132d"/>
      <path id="Path_195" data-name="Path 195" d="M240.336,325.48,236.652,301.4h8.981l.126,1.066.108-1.066h8.982l-3.431,24.084Z" transform="translate(-212.264 -296.273)" fill="#0c132d"/>
      <path id="Path_196" data-name="Path 196" d="M255.339,326a11.677,11.677,0,0,1-4.123-.686,7.3,7.3,0,0,1-3.057-2.062,7.4,7.4,0,0,1-1.512-2.851,15.776,15.776,0,0,1-.386-3.965v-6.084a11.781,11.781,0,0,1,.89-5,6.682,6.682,0,0,1,3.159-3.18,10.147,10.147,0,0,1,4.589-1.011,10.26,10.26,0,0,1,5.221,1.233,7.169,7.169,0,0,1,3.111,3.458,13.977,13.977,0,0,1,.824,5.331v5.661a15.131,15.131,0,0,1-.287,3.339,7.659,7.659,0,0,1-1.425,2.824,7.178,7.178,0,0,1-2.919,2.275A10.485,10.485,0,0,1,255.339,326Z" transform="translate(-206.403 -296.415)" fill="#0c132d"/>
      <path id="Path_197" data-name="Path 197" d="M256.6,325.664V301.58h9.726l0,.068a5.855,5.855,0,0,1,1.892-.439l1.716-.114v10.673h-1.61a3.833,3.833,0,0,0-1.758.256c-.206.119-.225.2-.24.27a21.221,21.221,0,0,0-.15,3.523v9.848H256.6Z" transform="translate(-200.094 -296.457)" fill="#0c132d"/>
      <path id="Path_198" data-name="Path 198" d="M276.8,327.957a11.364,11.364,0,0,1-5.58-1.257,6.717,6.717,0,0,1-3.244-3.819,20.393,20.393,0,0,1-.694-6.108v-7.437a34.513,34.513,0,0,1,.2-4.345,7.407,7.407,0,0,1,1.422-3.384,7.871,7.871,0,0,1,3.243-2.524,12.2,12.2,0,0,1,10.111.488,7.01,7.01,0,0,1,3.2,3.666,18.227,18.227,0,0,1,.689,5.79v4.028h-9.024V314h9.024v2.6a20.69,20.69,0,0,1-.642,6.12,7.322,7.322,0,0,1-3.115,3.732A10.082,10.082,0,0,1,276.8,327.957Z" transform="translate(-193.577 -298.214)" fill="#0c132d"/>
      <rect id="Rectangle_30" data-name="Rectangle 30" width="9.761" height="28.676" transform="translate(91.538 0.533)" fill="#0c132d"/>
      <path id="Path_199" data-name="Path 199" d="M291.958,326.535a19.436,19.436,0,0,1-3.407-.211,4.9,4.9,0,0,1-2.418-1.23,4.365,4.365,0,0,1-1.365-2.352,23.484,23.484,0,0,1-.206-4.279v-8.987h-1.369v-6.522h1.369v-3.286h9.587v3.286h1.713v6.522h-1.713v9.554c0,.382,0,.683.014.918.1,0,1.967,0,1.967,0v6.585Z" transform="translate(-183.874 -297.328)" fill="#0c132d"/>
      <path id="Path_200" data-name="Path 200" d="M291.186,328.4v-6.553h1.61c.222,0,.411,0,.572-.006-.052-.267-4.075-20.449-4.075-20.449h9.117l.146.99.071-.99h9.059l-2.032,16.9c-.3,2.467-.541,4.118-.749,5.047a6.862,6.862,0,0,1-1.278,2.806A5.506,5.506,0,0,1,301,327.923a14.545,14.545,0,0,1-4.353.483h-5.461Z" transform="translate(-180.153 -296.272)" fill="#0c132d"/>
      <path id="Path_201" data-name="Path 201" d="M302.939,327.22V298.544h8.277a16.969,16.969,0,0,1,4.611.489,6.227,6.227,0,0,1,2.924,1.687,5.824,5.824,0,0,1,1.372,2.669,18.614,18.614,0,0,1,.3,3.888V309.5a10.552,10.552,0,0,1-.646,4.217,5.015,5.015,0,0,1-2.66,2.521,10.2,10.2,0,0,1-4.168.736h-.167V327.22Z" transform="translate(-171.829 -298.013)" fill="#0c132d"/>
      <path id="Path_202" data-name="Path 202" d="M312.861,325.665V301.581h9.726l0,.068a5.9,5.9,0,0,1,1.892-.441l1.716-.114v10.673h-1.61a3.835,3.835,0,0,0-1.758.256c-.2.119-.224.2-.24.27a21.213,21.213,0,0,0-.15,3.523v9.848h-9.572Z" transform="translate(-165.776 -296.458)" fill="#0c132d"/>
      <path id="Path_203" data-name="Path 203" d="M328.855,326a13.563,13.563,0,0,1-4.057-.539,6.468,6.468,0,0,1-3-1.88,7.179,7.179,0,0,1-1.5-2.911,18.29,18.29,0,0,1-.4-4.392v-5.345a14.4,14.4,0,0,1,.737-5.123,6.819,6.819,0,0,1,2.932-3.423,9.571,9.571,0,0,1,5.017-1.224,11.183,11.183,0,0,1,4.289.76,7.366,7.366,0,0,1,4.437,4.814,14.442,14.442,0,0,1,.367,3.74v5.11a22.8,22.8,0,0,1-.319,4.466,7.4,7.4,0,0,1-1.536,3.13,7.117,7.117,0,0,1-3.069,2.175A11.218,11.218,0,0,1,328.855,326Z" transform="translate(-161.481 -296.415)" fill="#0c132d"/>
      <path id="Path_204" data-name="Path 204" d="M348.452,327.22l-.253-1.3q-.2-1.019-.386-2.091c-.092.647-.484,3.4-.484,3.4H336.282l-3.339-28.676h9.728l.114,1.452c0-.019.2-1.452.2-1.452h9.7s.2,1.652.219,1.823c.021-.148.264-1.823.264-1.823H362.8l-3.321,28.676Z" transform="translate(-153.527 -298.013)" fill="#0c132d"/>
      <path id="Path_205" data-name="Path 205" d="M355.942,326a6.977,6.977,0,0,1-3.957-1.209c-1.415-.951-2.1-2.729-2.1-5.432v-1.715c0-2.009.361-3.358,1.133-4.249a4.415,4.415,0,0,1,.6-.557h-1.732v-3.009a11.308,11.308,0,0,1,.686-4.365,6.772,6.772,0,0,1,2.895-3.07,11.991,11.991,0,0,1,10.977.193,6.012,6.012,0,0,1,2.624,3.806,44.317,44.317,0,0,1,.361,7.145v12.081h-9.307A6.039,6.039,0,0,1,355.942,326Z" transform="translate(-143.194 -296.416)" fill="#0c132d"/>
      <path id="Path_206" data-name="Path 206" d="M368.782,326a11.909,11.909,0,0,1-4.79-.89,6.1,6.1,0,0,1-3.16-2.8,10.472,10.472,0,0,1-.815-4.619v-2.616h2.834a6.7,6.7,0,0,1-2.236-2.4,8.593,8.593,0,0,1-.771-3.737,9.232,9.232,0,0,1,.865-4.469,5.875,5.875,0,0,1,3.04-2.541,11.338,11.338,0,0,1,4.279-.763,12.047,12.047,0,0,1,4.077.623,7.021,7.021,0,0,1,2.883,1.829,5.233,5.233,0,0,1,1.317,2.328,12.97,12.97,0,0,1,.2,2.663v2.821H373.5a8.167,8.167,0,0,1,2.323,2.006,7.354,7.354,0,0,1,1.17,4.419,10.149,10.149,0,0,1-.836,4.574,5.98,5.98,0,0,1-2.98,2.734A10.66,10.66,0,0,1,368.782,326Z" transform="translate(-137.117 -296.416)" fill="#0c132d"/>
      <path id="Path_207" data-name="Path 207" d="M369.551,327.22V298.544h9.572v4.55a7.174,7.174,0,0,1,2.194-.335,6.3,6.3,0,0,1,3.782,1.154,4.979,4.979,0,0,1,2.054,2.895,21.488,21.488,0,0,1,.3,4.416v16h-17.9Z" transform="translate(-131.195 -298.013)" fill="#0c132d"/>
    </g>
    <g id="Group_107" data-name="Group 107" transform="translate(1.61 1.61)">
      <path id="Path_208" data-name="Path 208" d="M222.5,299.545h4.685a35.764,35.764,0,0,1,6.343.362,4.37,4.37,0,0,1,2.7,1.847,8.386,8.386,0,0,1,1.045,4.74q0,2.97-.739,3.993a3.885,3.885,0,0,1-2.909,1.227,4.983,4.983,0,0,1,2.642,1.306,3.883,3.883,0,0,1,.84,1.5,23.76,23.76,0,0,1,.166,3.766V325h-6.147v-8.459a5.845,5.845,0,0,0-.322-2.531c-.216-.325-.778-.488-1.691-.488V325H222.5Zm6.62,4.355v5.661a2.918,2.918,0,0,0,1.565-.306q.449-.307.448-1.988v-1.4a2.12,2.12,0,0,0-.433-1.587A2.438,2.438,0,0,0,229.124,303.9Z" transform="translate(-222.504 -299.012)" fill="#e4e3ef"/>
      <path id="Path_209" data-name="Path 209" d="M239.7,299.545v3.318h-6.541v-3.318Zm0,4.59V325h-6.541V304.135Z" transform="translate(-216.005 -299.012)" fill="#e4e3ef"/>
      <path id="Path_210" data-name="Path 210" d="M252.281,302.4l-2.972,20.864h-8.3L237.817,302.4h5.672l1.787,15.235q.21-1.681.716-8.188.271-3.635.617-7.047Z" transform="translate(-213.163 -297.273)" fill="#e4e3ef"/>
      <path id="Path_211" data-name="Path 211" d="M261.835,313.34h-8.222v4.513a5,5,0,0,0,.2,1.824.793.793,0,0,0,.786.409.954.954,0,0,0,.968-.543,5.937,5.937,0,0,0,.243-2.1v-2.751h6.021v1.541a13.917,13.917,0,0,1-.243,2.972,6.047,6.047,0,0,1-1.14,2.217,5.572,5.572,0,0,1-2.272,1.769,8.8,8.8,0,0,1-3.452.589,10.022,10.022,0,0,1-3.553-.581,5.519,5.519,0,0,1-3.584-3.828,14.469,14.469,0,0,1-.33-3.545v-6.084a10.366,10.366,0,0,1,.739-4.316A5.072,5.072,0,0,1,250.421,303a8.515,8.515,0,0,1,3.867-.841,8.648,8.648,0,0,1,4.41,1.014,5.588,5.588,0,0,1,2.438,2.689,12.59,12.59,0,0,1,.7,4.709v2.764Zm-6.368-3.4V308.42a7.735,7.735,0,0,0-.172-2.091.684.684,0,0,0-.707-.472c-.44,0-.713.134-.818.4a8.343,8.343,0,0,0-.158,2.162v1.525h1.855Z" transform="translate(-207.402 -297.415)" fill="#e4e3ef"/>
      <path id="Path_212" data-name="Path 212" d="M263.953,302.539l-.251,2.743q1.384-2.949,4.009-3.12v7.343a5.33,5.33,0,0,0-2.563.472,1.975,1.975,0,0,0-1.006,1.312,23.547,23.547,0,0,0-.188,3.875V323.4H257.6V302.539h6.352Z" transform="translate(-201.094 -297.416)" fill="#e4e3ef"/>
      <path id="Path_213" data-name="Path 213" d="M283.93,310.832h-6.619v-4.424A7.918,7.918,0,0,0,277.1,304a.915.915,0,0,0-.935-.478.978.978,0,0,0-1.038.581,8.86,8.86,0,0,0-.221,2.516v11.824a8.194,8.194,0,0,0,.221,2.421.942.942,0,0,0,.99.567.931.931,0,0,0,.968-.568,9.261,9.261,0,0,0,.229-2.663V315h6.619v.992a19.557,19.557,0,0,1-.559,5.6,5.731,5.731,0,0,1-2.468,2.9,8.452,8.452,0,0,1-4.709,1.243,9.762,9.762,0,0,1-4.8-1.053,5.117,5.117,0,0,1-2.5-2.917,19.143,19.143,0,0,1-.613-5.6v-7.437a33.076,33.076,0,0,1,.188-4.126,5.793,5.793,0,0,1,1.124-2.65,6.255,6.255,0,0,1,2.594-2,10.617,10.617,0,0,1,8.639.4,5.426,5.426,0,0,1,2.5,2.819,16.959,16.959,0,0,1,.6,5.252v2.417Z" transform="translate(-194.578 -299.214)" fill="#e4e3ef"/>
      <path id="Path_214" data-name="Path 214" d="M285.9,299.545v3.318h-6.541v-3.318Zm0,4.59V325h-6.541V304.135Z" transform="translate(-187.823 -299.012)" fill="#e4e3ef"/>
      <path id="Path_215" data-name="Path 215" d="M291.93,300.668v3.286h1.713v3.3H291.93V318.42a6,6,0,0,0,.212,2.3q.212.237,1.769.235v3.365h-2.563a18.3,18.3,0,0,1-3.1-.18,3.3,3.3,0,0,1-1.636-.834,2.774,2.774,0,0,1-.881-1.494,26.448,26.448,0,0,1-.172-3.954v-10.6h-1.369v-3.3h1.369v-3.286Z" transform="translate(-184.873 -298.327)" fill="#e4e3ef"/>
      <path id="Path_216" data-name="Path 216" d="M305.131,302.4l-1.814,15.094q-.43,3.584-.721,4.889a5.232,5.232,0,0,1-.968,2.154,3.894,3.894,0,0,1-1.879,1.25,13.277,13.277,0,0,1-3.845.4h-3.851v-3.333a7.347,7.347,0,0,0,1.906-.15.63.63,0,0,0,.425-.668q0-.251-.394-2.185L290.512,302.4h5.767l2.086,14.088,1.017-14.088Z" transform="translate(-181.019 -297.273)" fill="#e4e3ef"/>
      <path id="Path_217" data-name="Path 217" d="M303.94,299.545h6.667a15.666,15.666,0,0,1,4.16.425,4.646,4.646,0,0,1,2.185,1.227,4.215,4.215,0,0,1,.99,1.942,17.466,17.466,0,0,1,.258,3.529v2.217a9.212,9.212,0,0,1-.5,3.553,3.445,3.445,0,0,1-1.845,1.713,8.757,8.757,0,0,1-3.516.6h-1.777V325h-6.619V299.545Zm6.62,4.355v6.477c.188.011.353.016.488.016a1.532,1.532,0,0,0,1.267-.448,3.3,3.3,0,0,0,.353-1.863v-2.091a2.451,2.451,0,0,0-.409-1.7A2.557,2.557,0,0,0,310.56,303.9Z" transform="translate(-172.829 -299.012)" fill="#e4e3ef"/>
      <path id="Path_218" data-name="Path 218" d="M320.213,302.539l-.251,2.743q1.384-2.949,4.009-3.12v7.343a5.329,5.329,0,0,0-2.563.472,1.975,1.975,0,0,0-1.006,1.312,23.553,23.553,0,0,0-.188,3.875V323.4h-6.351V302.539h6.352Z" transform="translate(-166.776 -297.416)" fill="#e4e3ef"/>
      <path id="Path_219" data-name="Path 219" d="M335.461,309.866v5.11a21.586,21.586,0,0,1-.283,4.126,5.788,5.788,0,0,1-1.211,2.452,5.491,5.491,0,0,1-2.381,1.682,9.513,9.513,0,0,1-3.341.543,11.933,11.933,0,0,1-3.569-.464,4.848,4.848,0,0,1-2.272-1.4,5.556,5.556,0,0,1-1.156-2.264,16.955,16.955,0,0,1-.346-3.986v-5.345a13.05,13.05,0,0,1,.629-4.543,5.236,5.236,0,0,1,2.264-2.626,7.971,7.971,0,0,1,4.183-.99,9.528,9.528,0,0,1,3.671.638,5.751,5.751,0,0,1,3.507,3.766A13.1,13.1,0,0,1,335.461,309.866Zm-6.351-1.571a6.984,6.984,0,0,0-.172-2.021.712.712,0,0,0-.739-.417.745.745,0,0,0-.755.417,6.4,6.4,0,0,0-.188,2.021v9.419a6.109,6.109,0,0,0,.188,1.926.859.859,0,0,0,1.486.039,5.329,5.329,0,0,0,.18-1.761Z" transform="translate(-162.481 -297.416)" fill="#e4e3ef"/>
      <path id="Path_220" data-name="Path 220" d="M360.308,299.545,357.36,325H349.1q-1.135-5.866-2-13.348-.4,3.207-1.845,13.348H337.03l-2.964-25.456h6.43l.7,8.882.676,8.586q.365-6.665,1.831-17.469h6.875q.138,1.116.721,8.4l.731,9.686q.563-9.242,1.847-18.08h6.43Z" transform="translate(-154.451 -299.012)" fill="#e4e3ef"/>
      <path id="Path_221" data-name="Path 221" d="M356.842,310.62h-5.959v-1.4a9.838,9.838,0,0,1,.559-3.734,5.185,5.185,0,0,1,2.241-2.318,10.467,10.467,0,0,1,9.23.134,4.448,4.448,0,0,1,1.966,2.8,43.788,43.788,0,0,1,.33,6.831V323.4H359.03v-1.858a3.882,3.882,0,0,1-3.695,2.236,5.356,5.356,0,0,1-3.057-.935q-1.391-.937-1.391-4.1v-1.716a5.02,5.02,0,0,1,.739-3.191,10.4,10.4,0,0,1,3.663-1.98q3.13-1.227,3.349-1.65a4.384,4.384,0,0,0,.221-1.729,5.862,5.862,0,0,0-.243-2.13.836.836,0,0,0-.81-.5q-.645,0-.8.417a8.474,8.474,0,0,0-.158,2.162v2.183Zm2.012,2.861a4.71,4.71,0,0,0-1.769,1.871,7.43,7.43,0,0,0-.243,2.17,6.31,6.31,0,0,0,.212,2.091.83.83,0,0,0,.84.472.778.778,0,0,0,.778-.369,5.967,5.967,0,0,0,.18-1.942v-4.294Z" transform="translate(-144.193 -297.415)" fill="#e4e3ef"/>
      <path id="Path_222" data-name="Path 222" d="M374.287,309.206h-5.629v-1.132a5.985,5.985,0,0,0-.166-1.832c-.111-.256-.385-.385-.826-.385a.936.936,0,0,0-.8.354,1.759,1.759,0,0,0-.267,1.061,5.323,5.323,0,0,0,.134,1.407,2.234,2.234,0,0,0,.8.982,17.434,17.434,0,0,0,2.743,1.557,10,10,0,0,1,3.632,2.547,5.9,5.9,0,0,1,.865,3.474,8.76,8.76,0,0,1-.66,3.845,4.39,4.39,0,0,1-2.209,2,9.021,9.021,0,0,1-3.734.7,10.265,10.265,0,0,1-4.143-.755,4.523,4.523,0,0,1-2.367-2.045,9.078,9.078,0,0,1-.644-3.9v-1.006h5.628v1.32a6.939,6.939,0,0,0,.213,2.185.824.824,0,0,0,.841.5,1.138,1.138,0,0,0,.943-.338,2.539,2.539,0,0,0,.267-1.423,3.156,3.156,0,0,0-.346-1.871,29.4,29.4,0,0,0-3.7-2.233q-2.8-1.572-3.412-2.853a6.981,6.981,0,0,1-.613-3.043,7.885,7.885,0,0,1,.66-3.687,4.287,4.287,0,0,1,2.241-1.832,9.668,9.668,0,0,1,3.671-.644,10.417,10.417,0,0,1,3.529.526,5.431,5.431,0,0,1,2.233,1.391,3.718,3.718,0,0,1,.943,1.6,11.671,11.671,0,0,1,.166,2.312Z" transform="translate(-138.117 -297.416)" fill="#e4e3ef"/>
      <path id="Path_223" data-name="Path 223" d="M376.9,299.545v5.727a5.692,5.692,0,0,1,1.769-1.133,5.446,5.446,0,0,1,2.037-.378,4.72,4.72,0,0,1,2.839.848,3.417,3.417,0,0,1,1.431,1.958,20.777,20.777,0,0,1,.259,4.049V325h-6.352V310.318a9.14,9.14,0,0,0-.18-2.343.868.868,0,0,0-1.6.016,7.06,7.06,0,0,0-.2,2.122V325h-6.351V299.547H376.9Z" transform="translate(-132.194 -299.012)" fill="#e4e3ef"/>
    </g>
  </g>
  <path id="Path_224" data-name="Path 224" d="M229.723,350.769l-2.148,3.284L224.4,351.74l2.164-3.175-.42-2.338,1.225-1.42,2.061-.375,10.043-9.008s1.257-1.278-.1-5.134a1.851,1.851,0,0,0-.079-.225c-1.483-4.03,5.48-4.835,5.48-4.835l20.036,1.378a2.627,2.627,0,0,1,1.251,1.837l3.239.148.109.613,25.222-.026s-.238-1.616,2.719-1.753.037.214.037.214L352,327.527a2.12,2.12,0,0,1,1.526,1.721l98.268.42.689-.9,1.79-.159.15.916.539-.873,1.325-.235.14.74.718-.819s2.17-.821,2.417,1.027l.227,3.648-7.493.34-.62-1.51-97.84-.266-1.592,2.088-56.186-.129-1.85-2.156-25.182.134-.684.465-3.043.3s-.2,1.761-2.74,1.958l-2.36.264-16.754,19.83s-2.384,3.872-8.634.291Z" transform="translate(-185.115 -123.61)" fill="#e4e3ef"/>
  <g id="Group_109" data-name="Group 109" transform="translate(76.29 218.426)">
    <path id="Path_225" data-name="Path 225" d="M255.987,342.06h-3.64v-2.434a4.307,4.307,0,0,0-.118-1.323.5.5,0,0,0-.514-.262.535.535,0,0,0-.57.319,4.885,4.885,0,0,0-.121,1.383v6.5a4.545,4.545,0,0,0,.121,1.331.517.517,0,0,0,.544.311.511.511,0,0,0,.531-.311,5.094,5.094,0,0,0,.126-1.465v-1.761h3.64v.547a10.7,10.7,0,0,1-.307,3.081,3.144,3.144,0,0,1-1.357,1.594,4.65,4.65,0,0,1-2.589.684,5.362,5.362,0,0,1-2.637-.58,2.809,2.809,0,0,1-1.375-1.6,10.51,10.51,0,0,1-.336-3.082V340.9a18.2,18.2,0,0,1,.1-2.27,3.167,3.167,0,0,1,.618-1.455,3.45,3.45,0,0,1,1.426-1.1,5.833,5.833,0,0,1,4.753.221,2.984,2.984,0,0,1,1.375,1.55,9.326,9.326,0,0,1,.328,2.888v1.33Z" transform="translate(-247.385 -335.668)" fill="#e4e3ef"/>
    <path id="Path_226" data-name="Path 226" d="M261.418,341.526v2.811a11.79,11.79,0,0,1-.156,2.27,3.189,3.189,0,0,1-.667,1.349,2.994,2.994,0,0,1-1.31.924,5.212,5.212,0,0,1-1.837.3,6.586,6.586,0,0,1-1.963-.254,2.664,2.664,0,0,1-1.249-.771,3.056,3.056,0,0,1-.636-1.245,9.332,9.332,0,0,1-.19-2.191v-2.94a7.217,7.217,0,0,1,.346-2.5A2.869,2.869,0,0,1,255,337.836a4.393,4.393,0,0,1,2.3-.544,5.253,5.253,0,0,1,2.019.349,3.274,3.274,0,0,1,1.3.911,3.226,3.226,0,0,1,.626,1.161A7.149,7.149,0,0,1,261.418,341.526Zm-3.494-.865a3.817,3.817,0,0,0-.095-1.109.4.4,0,0,0-.406-.23.412.412,0,0,0-.415.23,3.5,3.5,0,0,0-.1,1.109v5.181a3.36,3.36,0,0,0,.1,1.059.47.47,0,0,0,.816.019,2.888,2.888,0,0,0,.1-.969v-5.29Z" transform="translate(-243.71 -334.677)" fill="#e4e3ef"/>
    <path id="Path_227" data-name="Path 227" d="M262.546,337.5l-.061,1.092a2.79,2.79,0,0,1,.969-.974,2.52,2.52,0,0,1,1.28-.324,2.48,2.48,0,0,1,2.206,1.3,3.119,3.119,0,0,1,1-.974,2.371,2.371,0,0,1,1.229-.324,2.412,2.412,0,0,1,1.475.432,1.913,1.913,0,0,1,.749,1.059,8.936,8.936,0,0,1,.164,2.038v8.153h-3.389v-7.485a9.439,9.439,0,0,0-.1-1.819.438.438,0,0,0-.462-.351.456.456,0,0,0-.48.346,8.775,8.775,0,0,0-.108,1.824v7.48h-3.389v-7.288a13.425,13.425,0,0,0-.082-2.025.416.416,0,0,0-.454-.336.523.523,0,0,0-.4.177.691.691,0,0,0-.182.433c-.013.171-.018.531-.018,1.085v7.955H259.1V337.5h3.445Z" transform="translate(-240.238 -334.677)" fill="#e4e3ef"/>
    <path id="Path_228" data-name="Path 228" d="M271.027,337.5l-.061,1.092a2.789,2.789,0,0,1,.969-.974,2.52,2.52,0,0,1,1.28-.324,2.48,2.48,0,0,1,2.206,1.3,3.118,3.118,0,0,1,1-.974,2.37,2.37,0,0,1,1.228-.324,2.411,2.411,0,0,1,1.475.432,1.913,1.913,0,0,1,.749,1.059,8.942,8.942,0,0,1,.164,2.038v8.153h-3.389v-7.485a9.42,9.42,0,0,0-.1-1.819.438.438,0,0,0-.462-.351.456.456,0,0,0-.48.346,8.772,8.772,0,0,0-.108,1.824v7.48H272.1v-7.288a13.419,13.419,0,0,0-.082-2.025.416.416,0,0,0-.454-.336.523.523,0,0,0-.4.177.69.69,0,0,0-.182.433c-.013.171-.018.531-.018,1.085v7.955h-3.389V337.5h3.445Z" transform="translate(-235.065 -334.677)" fill="#e4e3ef"/>
    <path id="Path_229" data-name="Path 229" d="M284.011,343.439h-4.522v2.481a2.738,2.738,0,0,0,.113,1,.435.435,0,0,0,.433.227.525.525,0,0,0,.531-.3,3.254,3.254,0,0,0,.134-1.154v-1.513h3.312v.847a7.668,7.668,0,0,1-.134,1.636,3.321,3.321,0,0,1-.626,1.219,3.043,3.043,0,0,1-1.249.972,4.842,4.842,0,0,1-1.9.324,5.5,5.5,0,0,1-1.955-.32,3.1,3.1,0,0,1-1.319-.878,3.156,3.156,0,0,1-.652-1.228A7.946,7.946,0,0,1,276,344.8v-3.347a5.7,5.7,0,0,1,.406-2.373,2.784,2.784,0,0,1,1.331-1.332,5.347,5.347,0,0,1,4.552.1,3.07,3.07,0,0,1,1.341,1.48,6.9,6.9,0,0,1,.385,2.589v1.523Zm-3.5-1.868v-.839a4.266,4.266,0,0,0-.095-1.149.375.375,0,0,0-.39-.259c-.242,0-.393.074-.449.221a4.575,4.575,0,0,0-.087,1.188v.839Z" transform="translate(-229.932 -334.678)" fill="#e4e3ef"/>
    <path id="Path_230" data-name="Path 230" d="M285.176,337.5l-.139,1.509a2.593,2.593,0,0,1,2.206-1.715v4.038a2.933,2.933,0,0,0-1.409.259,1.089,1.089,0,0,0-.554.721,12.977,12.977,0,0,0-.1,2.132v4.53h-3.494V337.5Z" transform="translate(-226.463 -334.677)" fill="#e4e3ef"/>
    <path id="Path_231" data-name="Path 231" d="M293.381,341.828h-3.294v-1.322a2.58,2.58,0,0,0-.113-.939.412.412,0,0,0-.415-.246.4.4,0,0,0-.406.217,2.766,2.766,0,0,0-.1.969v5.411a2.092,2.092,0,0,0,.156.921.494.494,0,0,0,.459.308.471.471,0,0,0,.48-.32,3.849,3.849,0,0,0,.126-1.211V344.25h3.112a17.312,17.312,0,0,1-.1,2.062,3.3,3.3,0,0,1-.578,1.409,3.111,3.111,0,0,1-1.275,1.09,5.517,5.517,0,0,1-4.291-.137,2.786,2.786,0,0,1-1.224-1.418,7.365,7.365,0,0,1-.359-2.589v-3.259a6.3,6.3,0,0,1,.295-2.206,2.857,2.857,0,0,1,1.254-1.327,4.406,4.406,0,0,1,2.334-.583,4.463,4.463,0,0,1,2.335.578,2.852,2.852,0,0,1,1.29,1.462A7.6,7.6,0,0,1,293.381,341.828Z" transform="translate(-224.101 -334.677)" fill="#e4e3ef"/>
    <path id="Path_232" data-name="Path 232" d="M294.659,335.852v1.824h-3.6v-1.824Zm0,2.525v11.474h-3.6V338.377Z" transform="translate(-220.742 -335.556)" fill="#e4e3ef"/>
    <path id="Path_233" data-name="Path 233" d="M297.255,341.942h-3.276v-.77a5.419,5.419,0,0,1,.306-2.053,2.859,2.859,0,0,1,1.233-1.275,5.754,5.754,0,0,1,5.075.073,2.44,2.44,0,0,1,1.082,1.539,24.219,24.219,0,0,1,.18,3.758v5.759h-3.4v-1.022a2.134,2.134,0,0,1-2.033,1.229,2.945,2.945,0,0,1-1.681-.514q-.766-.514-.766-2.252v-.943a2.769,2.769,0,0,1,.406-1.755,5.758,5.758,0,0,1,2.016-1.09,5.806,5.806,0,0,0,1.842-.906,2.4,2.4,0,0,0,.121-.953,3.2,3.2,0,0,0-.134-1.172.461.461,0,0,0-.444-.272c-.235,0-.383.077-.441.23a4.712,4.712,0,0,0-.087,1.188v1.2Zm1.106,1.575a2.594,2.594,0,0,0-.972,1.029,4.05,4.05,0,0,0-.135,1.193,3.439,3.439,0,0,0,.117,1.15.457.457,0,0,0,.462.261.429.429,0,0,0,.428-.2,3.279,3.279,0,0,0,.1-1.067v-2.36Z" transform="translate(-218.964 -334.678)" fill="#e4e3ef"/>
    <path id="Path_234" data-name="Path 234" d="M303.215,335.852v14h-3.6v-14Z" transform="translate(-215.523 -335.556)" fill="#e4e3ef"/>
    <path id="Path_235" data-name="Path 235" d="M307.028,335.852h1.877v16.292h-1.877Z" transform="translate(-211.003 -335.556)" fill="#e4e3ef"/>
    <path id="Path_236" data-name="Path 236" d="M313.432,335.852h2.578a19.8,19.8,0,0,1,3.489.2,2.4,2.4,0,0,1,1.488,1.016,4.618,4.618,0,0,1,.575,2.607,4.064,4.064,0,0,1-.407,2.2,2.133,2.133,0,0,1-1.6.673,2.74,2.74,0,0,1,1.452.718,2.124,2.124,0,0,1,.462.826,12.927,12.927,0,0,1,.092,2.072v3.692h-3.383V345.2a3.217,3.217,0,0,0-.175-1.391c-.118-.179-.43-.269-.931-.269v6.313h-3.64Zm3.639,2.394v3.114a1.617,1.617,0,0,0,.861-.167c.164-.113.245-.478.245-1.095v-.771a1.171,1.171,0,0,0-.237-.873A1.35,1.35,0,0,0,317.07,338.246Z" transform="translate(-207.096 -335.556)" fill="#e4e3ef"/>
    <path id="Path_237" data-name="Path 237" d="M327.242,343.439h-4.522v2.481a2.788,2.788,0,0,0,.111,1,.438.438,0,0,0,.433.227.528.528,0,0,0,.533-.3,3.254,3.254,0,0,0,.134-1.154v-1.513h3.312v.847a7.572,7.572,0,0,1-.134,1.636,3.34,3.34,0,0,1-.628,1.219,3.037,3.037,0,0,1-1.248.972,4.851,4.851,0,0,1-1.9.324,5.508,5.508,0,0,1-1.955-.32,3.1,3.1,0,0,1-1.317-.878,3.159,3.159,0,0,1-.654-1.228,7.957,7.957,0,0,1-.18-1.95v-3.347a5.7,5.7,0,0,1,.406-2.373,2.792,2.792,0,0,1,1.332-1.332,4.712,4.712,0,0,1,2.127-.462,4.761,4.761,0,0,1,2.426.557,3.061,3.061,0,0,1,1.341,1.48,6.939,6.939,0,0,1,.383,2.589v1.523Zm-3.5-1.868v-.839a4.17,4.17,0,0,0-.1-1.149.374.374,0,0,0-.388-.259c-.242,0-.391.074-.449.221a4.574,4.574,0,0,0-.087,1.188v.839Z" transform="translate(-203.561 -334.678)" fill="#e4e3ef"/>
    <path id="Path_238" data-name="Path 238" d="M332.148,341.166h-3.1v-.623a3.354,3.354,0,0,0-.09-1.008q-.092-.212-.454-.212a.516.516,0,0,0-.441.195.956.956,0,0,0-.147.583,2.953,2.953,0,0,0,.074.773,1.212,1.212,0,0,0,.44.541,9.569,9.569,0,0,0,1.51.857,5.5,5.5,0,0,1,2,1.4,3.238,3.238,0,0,1,.476,1.913,4.794,4.794,0,0,1-.364,2.114,2.418,2.418,0,0,1-1.216,1.1,4.944,4.944,0,0,1-2.053.385,5.645,5.645,0,0,1-2.278-.415,2.484,2.484,0,0,1-1.3-1.124,4.982,4.982,0,0,1-.356-2.145v-.554h3.1v.726a3.788,3.788,0,0,0,.118,1.2.453.453,0,0,0,.462.277.624.624,0,0,0,.518-.187,1.4,1.4,0,0,0,.147-.781,1.741,1.741,0,0,0-.19-1.03,16.118,16.118,0,0,0-2.032-1.228,4.5,4.5,0,0,1-1.877-1.57,3.84,3.84,0,0,1-.336-1.673,4.321,4.321,0,0,1,.364-2.029,2.354,2.354,0,0,1,1.233-1.008,5.334,5.334,0,0,1,2.019-.354,5.727,5.727,0,0,1,1.942.29,2.994,2.994,0,0,1,1.228.765,2.063,2.063,0,0,1,.518.884,6.48,6.48,0,0,1,.09,1.27v.67Z" transform="translate(-200.191 -334.68)" fill="#e4e3ef"/>
    <path id="Path_239" data-name="Path 239" d="M333.69,335.852v1.824h-3.6v-1.824Zm0,2.525v11.474h-3.6V338.377Z" transform="translate(-196.933 -335.556)" fill="#e4e3ef"/>
    <path id="Path_240" data-name="Path 240" d="M341.091,335.853v14H337.6v-.832a3.616,3.616,0,0,1-1.054.779,2.706,2.706,0,0,1-1.159.259,2.357,2.357,0,0,1-1.409-.428,1.93,1.93,0,0,1-.766-.99,7.121,7.121,0,0,1-.167-1.834v-5.371a7.3,7.3,0,0,1,.167-1.876,1.863,1.863,0,0,1,.773-.972,2.47,2.47,0,0,1,1.444-.419,2.844,2.844,0,0,1,2.169.937v-3.254h3.5Zm-3.494,5.411a2.163,2.163,0,0,0-.106-.845.54.54,0,0,0-.848-.022,2.151,2.151,0,0,0-.108.868v5.622a2.587,2.587,0,0,0,.1.919.4.4,0,0,0,.4.222.446.446,0,0,0,.449-.246,3.809,3.809,0,0,0,.111-1.206v-5.311Z" transform="translate(-195.135 -335.557)" fill="#e4e3ef"/>
    <path id="Path_241" data-name="Path 241" d="M346.771,343.439h-4.523v2.481a2.79,2.79,0,0,0,.111,1,.438.438,0,0,0,.433.227.528.528,0,0,0,.533-.3,3.254,3.254,0,0,0,.134-1.154v-1.513h3.312v.847a7.572,7.572,0,0,1-.134,1.636,3.34,3.34,0,0,1-.628,1.219,3.037,3.037,0,0,1-1.248.972,4.851,4.851,0,0,1-1.9.324,5.507,5.507,0,0,1-1.955-.32,3.1,3.1,0,0,1-1.317-.878,3.16,3.16,0,0,1-.654-1.228,7.959,7.959,0,0,1-.18-1.95v-3.347a5.707,5.707,0,0,1,.406-2.373,2.791,2.791,0,0,1,1.332-1.332,4.713,4.713,0,0,1,2.127-.462,4.76,4.76,0,0,1,2.426.557,3.062,3.062,0,0,1,1.341,1.48,6.944,6.944,0,0,1,.383,2.589v1.523Zm-3.5-1.868v-.839a4.17,4.17,0,0,0-.1-1.149.374.374,0,0,0-.388-.259c-.242,0-.391.074-.449.221a4.573,4.573,0,0,0-.087,1.188v.839Z" transform="translate(-191.649 -334.678)" fill="#e4e3ef"/>
    <path id="Path_242" data-name="Path 242" d="M348,337.5l-.059,1.056a2.613,2.613,0,0,1,.929-.948,2.491,2.491,0,0,1,1.267-.316,2.4,2.4,0,0,1,1.47.423,1.878,1.878,0,0,1,.734,1.067,9.751,9.751,0,0,1,.166,2.149v8.042H349.01v-7.947a7.383,7.383,0,0,0-.079-1.444c-.052-.172-.195-.259-.433-.259a.434.434,0,0,0-.467.3,7.532,7.532,0,0,0-.095,1.594v7.757h-3.494V337.5H348Z" transform="translate(-188.18 -334.678)" fill="#e4e3ef"/>
    <path id="Path_243" data-name="Path 243" d="M354.1,336.47v1.808h.942v1.814H354.1v6.141a3.306,3.306,0,0,0,.116,1.261c.079.089.4.131.972.131v1.85h-1.41a10.092,10.092,0,0,1-1.7-.1,1.833,1.833,0,0,1-.9-.459,1.5,1.5,0,0,1-.485-.821,14.591,14.591,0,0,1-.1-2.175v-5.83h-.752v-1.814h.752v-1.808H354.1Z" transform="translate(-184.888 -335.181)" fill="#e4e3ef"/>
    <path id="Path_244" data-name="Path 244" d="M357.145,335.852v1.824h-3.6v-1.824Zm0,2.525v11.474h-3.6V338.377Z" transform="translate(-182.625 -335.556)" fill="#e4e3ef"/>
    <path id="Path_245" data-name="Path 245" d="M359.741,341.942h-3.276v-.77a5.417,5.417,0,0,1,.306-2.053A2.858,2.858,0,0,1,358,337.845a5.754,5.754,0,0,1,5.075.073,2.441,2.441,0,0,1,1.082,1.539,24.229,24.229,0,0,1,.18,3.758v5.759h-3.4v-1.022a2.134,2.134,0,0,1-2.033,1.229,2.945,2.945,0,0,1-1.681-.514q-.765-.514-.766-2.252v-.943a2.769,2.769,0,0,1,.406-1.755,5.758,5.758,0,0,1,2.016-1.09,5.806,5.806,0,0,0,1.842-.906,2.4,2.4,0,0,0,.121-.953,3.2,3.2,0,0,0-.134-1.172.461.461,0,0,0-.444-.272c-.235,0-.383.077-.441.23a4.7,4.7,0,0,0-.087,1.188v1.2Zm1.108,1.575a2.6,2.6,0,0,0-.972,1.029,4.05,4.05,0,0,0-.135,1.193,3.437,3.437,0,0,0,.118,1.15.457.457,0,0,0,.462.261.429.429,0,0,0,.428-.2,3.281,3.281,0,0,0,.1-1.067v-2.36Z" transform="translate(-180.848 -334.678)" fill="#e4e3ef"/>
    <path id="Path_246" data-name="Path 246" d="M365.7,335.852v14h-3.6v-14Z" transform="translate(-177.407 -335.556)" fill="#e4e3ef"/>
  </g>
  <g id="Group_110" data-name="Group 110" transform="translate(23.453 58.264)">
    <path id="Path_247" data-name="Path 247" d="M214.567,320.622h278.29l-3.717-16.395-3.717-.744V292.215l-4.589-1.412V280.338l-3.635-3.114-11.819.939v8.723l-5.149-.051V270.347l-4.6-2.367-22.757,1.42v8.295h-7.01v-36.2l-8.678-5.3-23.308,2.481-1.306.939v56.762l-167.648-23.8-6.44,13.859,15.485,1.456v1.483l7.113,3.412L234.3,318.637Zm53.045-19.975s-2.584-7.953-.3-9.649l17.132,1.6v1.5l6.042,2.9-4.3,16.406-14.5,1.467A140.09,140.09,0,0,0,267.612,300.647Zm111.456.763a9.463,9.463,0,0,1,2.634,2.355l-9.286.937a9.487,9.487,0,0,1,3.933-3.542ZM369.575,303l-.539,2.043-14.717,1.486c-.056-.176-.106-.346-.179-.53,0,0-1.781-5.522-.333-6.944l11.281,1.053v.744Zm-24-4.712c1.718.913,4.345,3.136,6.279,8.486l-16.469,1.663c1.207-4.35,3.415-8.654,7.437-10.4Zm-10.8,1.972-2.22,8.466-17.39,1.753c-.567-2-1.259-4.275-2.124-6.8,0,0-2.47-7.665.206-8.4l16.332,1.525v.963Zm-32.742-6.026c2.239.808,7.594,4.036,10.024,16.557l-22.126,2.23c.853-6.78,3.37-16.367,10.729-18.916Zm83.458,9.153a2.377,2.377,0,0,1,.409-1.341l6.683.621ZM252.429,289.609l3.065.288c3.376,1.613,9.958,7.1,11.871,25.406l-27.442,2.763C240.076,312.179,241.454,294.036,252.429,289.609Z" transform="translate(-214.567 -236.189)" fill="#0c132d"/>
    <path id="Path_248" data-name="Path 248" d="M390.023,239.816l20.426-2.323v60.755L220.5,280.721l2.987-5.194,166.537,20.2Z" transform="translate(-210.948 -235.393)" fill="#e4e3ef"/>
    <path id="Path_249" data-name="Path 249" d="M350.985,258.177l18.463-1.162v30.022H350.985Z" transform="translate(-131.352 -223.486)" fill="#e4e3ef"/>
  </g>
</svg>
