<svg class="nav-logo-text" xmlns="http://www.w3.org/2000/svg" viewBox="0 0 1000 114.266">
  <path id="Path_252" data-name="Path 252" d="M5.455-105.236H23.971q18.516,0,25.071,1.429a17.258,17.258,0,0,1,10.687,7.3q4.132,5.872,4.132,18.734,0,11.744-2.92,15.782T49.447-57.143q7.767,1.926,10.439,5.157a15.4,15.4,0,0,1,3.324,5.934q.652,2.7.652,14.881V-4.639H39.567V-38.068q0-8.078-1.274-10T31.614-50V-4.639H5.455ZM31.614-88.024v22.369q4.412,0,6.182-1.212t1.771-7.86v-5.53q0-4.784-1.709-6.276T31.614-88.024Zm67.479-17.211v13.11H73.244v-13.11Zm0,18.143V-4.639H73.244V-87.092Zm60.954,0L148.3-4.639H115.5L102.883-87.092H125.3l7.066,60.209q.83-6.644,2.83-32.362,1.068-14.357,2.435-27.847Zm60.519,42.687h-32.5v17.833q0,5.592.808,7.208a3.139,3.139,0,0,0,3.107,1.616,3.768,3.768,0,0,0,3.821-2.144q.963-2.144.963-8.3V-39.062h23.8v6.089a54.534,54.534,0,0,1-.963,11.744,23.9,23.9,0,0,1-4.5,8.761,21.935,21.935,0,0,1-8.979,6.99,34.755,34.755,0,0,1-13.639,2.33,39.611,39.611,0,0,1-14.042-2.3,22.479,22.479,0,0,1-9.476-6.307,22.793,22.793,0,0,1-4.691-8.823q-1.3-4.815-1.3-14.011V-58.634q0-10.811,2.92-17.056a20.056,20.056,0,0,1,9.569-9.569,33.737,33.737,0,0,1,15.285-3.324q10.563,0,17.429,4.008A22.044,22.044,0,0,1,217.8-73.951q2.765,6.617,2.765,18.609ZM195.4-57.827v-6.027q0-6.4-.683-8.264a2.7,2.7,0,0,0-2.8-1.864q-2.61,0-3.231,1.584t-.621,8.544v6.027Zm58.469-29.266-.994,10.843q5.468-11.648,15.844-12.334v29.017q-6.9,0-10.128,1.864a7.821,7.821,0,0,0-3.977,5.188q-.746,3.324-.746,15.316V-4.639h-25.1V-87.092Zm104.7,25.662H332.409V-78.915q0-7.626-.839-9.517t-3.7-1.891q-3.231,0-4.1,2.3t-.87,9.942v46.725q0,7.332.87,9.569t3.915,2.237q2.92,0,3.821-2.242t.9-10.527V-44.965h26.159v3.92q0,15.618-2.206,22.152t-9.755,11.45Q339.058-2.526,328-2.526q-11.495,0-18.951-4.163a20.241,20.241,0,0,1-9.879-11.526q-2.423-7.363-2.423-22.151v-29.39a130.683,130.683,0,0,1,.746-16.31,22.832,22.832,0,0,1,4.443-10.47,24.771,24.771,0,0,1,10.252-7.922,37.037,37.037,0,0,1,15.068-2.889q11.557,0,19.075,4.468t9.879,11.138q2.361,6.67,2.361,20.756Zm34.485-43.805v13.11H367.2v-13.11Zm0,18.143V-4.639H367.2V-87.092Zm35.479-11V-85.1H435.3v13.048h-6.773V-27.94q0,8.14.839,9.072t6.99.932v13.3H426.233a72.4,72.4,0,0,1-12.241-.715,13.05,13.05,0,0,1-6.462-3.293,10.942,10.942,0,0,1-3.48-5.9q-.683-3.324-.684-15.627V-72.055h-5.406V-85.1h5.406V-98.09Zm67.4,11L488.76-27.441q-1.7,14.165-2.851,19.322A20.678,20.678,0,0,1,482.088.394a15.435,15.435,0,0,1-7.424,4.94q-4.753,1.584-15.191,1.584H444.252V-6.255q5.85,0,7.531-.59a2.5,2.5,0,0,0,1.681-2.641q0-.994-1.555-8.637l-13.745-68.97h22.788L469.2-31.419l4.023-55.673ZM523.6-105.236h26.345q10.687,0,16.435,1.678a18.368,18.368,0,0,1,8.637,4.847,16.64,16.64,0,0,1,3.914,7.674q1.025,4.5,1.025,13.949v8.761q0,9.631-1.988,14.042a13.611,13.611,0,0,1-7.3,6.773q-5.313,2.361-13.887,2.361h-7.021V-4.639H523.6Zm26.159,17.211v25.6q1.118.062,1.926.062,3.6,0,5-1.771t1.4-7.363V-79.76q0-5.157-1.616-6.711T549.757-88.024Zm62.073.932-.994,10.843Q616.3-87.9,626.68-88.583v29.017q-6.9,0-10.128,1.864a7.821,7.821,0,0,0-3.977,5.188q-.746,3.324-.746,15.316V-4.639h-25.1V-87.092Zm77.234,28.955v20.194q0,11.122-1.118,16.31a22.894,22.894,0,0,1-4.784,9.693,21.607,21.607,0,0,1-9.413,6.648,37.643,37.643,0,0,1-13.2,2.144,47.1,47.1,0,0,1-14.1-1.833,19.221,19.221,0,0,1-8.979-5.53,21.85,21.85,0,0,1-4.567-8.947q-1.367-5.25-1.367-15.751V-56.335q0-11.495,2.485-17.957a20.65,20.65,0,0,1,8.947-10.377q6.462-3.915,16.528-3.915A37.74,37.74,0,0,1,674-86.067a23.284,23.284,0,0,1,9.351,6.555,23.2,23.2,0,0,1,4.5,8.326Q689.064-66.9,689.064-58.137Zm-25.1-6.213q0-6.338-.683-7.984a2.819,2.819,0,0,0-2.92-1.647,2.942,2.942,0,0,0-2.982,1.647q-.746,1.647-.746,7.984v37.219q0,5.841.746,7.612a2.864,2.864,0,0,0,2.92,1.771,2.889,2.889,0,0,0,2.951-1.616q.715-1.616.715-6.959Zm155.027-40.885L807.341-4.639h-32.66q-4.484-23.183-7.917-52.753-1.565,12.678-7.3,52.753H726.994l-11.71-100.6H740.7l2.764,35.1L746.135-36.2q1.448-26.34,7.233-69.032h27.164q.542,4.413,2.853,33.18l2.889,38.275q2.232-36.527,7.3-71.455ZM845.83-55.155H822.281v-5.53q0-9.569,2.206-14.757t8.854-9.165q6.648-3.977,17.273-3.977,12.738,0,19.2,4.5t7.767,11.06q1.3,6.555,1.3,27V-4.639H854.467v-7.347a16.31,16.31,0,0,1-5.934,6.629,16.368,16.368,0,0,1-8.668,2.21,21.206,21.206,0,0,1-12.085-3.7q-5.5-3.7-5.5-16.186V-29.8q0-9.258,2.92-12.613t14.477-7.829q12.365-4.847,13.235-6.524t.87-6.835q0-6.462-.963-8.419a3.305,3.305,0,0,0-3.2-1.957q-2.548,0-3.169,1.647t-.621,8.544Zm7.953,11.309q-6.027,4.412-6.99,7.394a29.363,29.363,0,0,0-.963,8.575q0,6.4.839,8.264a3.28,3.28,0,0,0,3.324,1.864q2.361,0,3.076-1.46t.715-7.674Zm85-16.9H916.54v-4.474q0-5.716-.652-7.239t-3.262-1.522a3.72,3.72,0,0,0-3.169,1.4A6.914,6.914,0,0,0,908.4-68.39a21.194,21.194,0,0,0,.528,5.561,8.8,8.8,0,0,0,3.169,3.883q2.641,2.113,10.843,6.151,10.936,5.344,14.353,10.066T940.71-29q0,10.066-2.61,15.192a17.348,17.348,0,0,1-8.73,7.891,35.679,35.679,0,0,1-14.757,2.765A40.634,40.634,0,0,1,898.241-6.13q-6.8-2.982-9.351-8.078t-2.548-15.409v-3.977h22.244v5.219q0,6.648.839,8.637a3.253,3.253,0,0,0,3.324,1.988q2.672,0,3.728-1.336t1.056-5.623q0-5.9-1.367-7.394-1.429-1.491-14.6-8.823-11.06-6.213-13.483-11.277a27.611,27.611,0,0,1-2.423-12.023q0-9.879,2.61-14.571t8.854-7.239a38.211,38.211,0,0,1,14.509-2.548A41.156,41.156,0,0,1,925.581-86.5,21.422,21.422,0,0,1,934.4-81a14.767,14.767,0,0,1,3.728,6.338,45.992,45.992,0,0,1,.652,9.134Zm33.739-44.489V-82.6a22.527,22.527,0,0,1,6.99-4.485,21.571,21.571,0,0,1,8.046-1.5,18.6,18.6,0,0,1,11.215,3.355q4.629,3.355,5.654,7.736t1.025,16V-4.639h-25.1V-62.673q0-7.208-.715-9.258a3.023,3.023,0,0,0-3.2-2.05,3.053,3.053,0,0,0-3.107,2.113q-.808,2.113-.808,8.388V-4.639h-25.1v-100.6Z" transform="translate(-5.455 107.348)"/>
</svg>
