<svg class="nav-logo-wand-subtext" xmlns="http://www.w3.org/2000/svg" viewBox="0 0 912.479 121.108">
  <g id="Group_112" data-name="Group 112" transform="translate(-786.834 -965.571)">
    <path id="Path_251" data-name="Path 251" d="M245.029,424.232,236.7,436.963l-12.3-8.968,8.388-12.307-1.629-9.062,4.749-5.5,7.989-1.454,38.932-34.919s4.874-4.955-.381-19.9a7.169,7.169,0,0,0-.306-.874c-5.748-15.622,21.245-18.742,21.245-18.742l77.67,5.342a10.184,10.184,0,0,1,4.849,7.121l12.557.574.424,2.378,97.772-.1s-.924-6.266,10.541-6.8c11.44-.555.144.83.144.83l211.7-.443s5.418,1.448,5.916,6.672l380.929,1.628,2.671-3.495,6.94-.618.58,3.551,2.091-3.383,5.136-.911.543,2.87,2.784-3.176s8.413-3.183,9.368,3.982l.88,14.142-29.046,1.317-2.4-5.854-379.269-1.03-6.172,8.094-217.8-.5-7.171-8.357-97.616.518-2.652,1.8-11.8,1.167s-.774,6.827-10.622,7.589l-9.15,1.023L298.24,438.043s-9.243,15.01-33.471,1.13Z" transform="translate(562.432 640.341)"/>
    <path id="Path_253" data-name="Path 253" d="M34-31.408H20.626v-8.939a16.011,16.011,0,0,0-.429-4.866,1.842,1.842,0,0,0-1.89-.967A1.976,1.976,0,0,0,16.21-45a17.885,17.885,0,0,0-.445,5.083v23.89a16.672,16.672,0,0,0,.445,4.892,1.9,1.9,0,0,0,2,1.144,1.88,1.88,0,0,0,1.954-1.146,18.7,18.7,0,0,0,.461-5.382v-6.465H34v2Q34-13,32.872-9.659a11.572,11.572,0,0,1-4.988,5.854A17.075,17.075,0,0,1,18.37-1.292,19.71,19.71,0,0,1,8.681-3.42,10.349,10.349,0,0,1,3.63-9.313Q2.391-13.078,2.391-20.639V-35.665A66.814,66.814,0,0,1,2.772-44a11.674,11.674,0,0,1,2.271-5.353,12.665,12.665,0,0,1,5.242-4.05,18.936,18.936,0,0,1,7.7-1.477A18.853,18.853,0,0,1,27.742-52.6a10.957,10.957,0,0,1,5.051,5.695Q34-43.5,34-36.294Zm33.452,1.684V-19.4a43.57,43.57,0,0,1-.572,8.339A11.706,11.706,0,0,1,64.434-6.1a11.047,11.047,0,0,1-4.813,3.4,19.246,19.246,0,0,1-6.751,1.1,24.081,24.081,0,0,1-7.211-.937,9.827,9.827,0,0,1-4.591-2.827,11.172,11.172,0,0,1-2.335-4.575,34.394,34.394,0,0,1-.7-8.053V-28.8a26.424,26.424,0,0,1,1.271-9.181,10.558,10.558,0,0,1,4.575-5.305,16.1,16.1,0,0,1,8.45-2A19.3,19.3,0,0,1,59.748-44a11.9,11.9,0,0,1,4.781,3.352,11.86,11.86,0,0,1,2.3,4.257A26.463,26.463,0,0,1,67.452-29.724ZM54.618-32.9a14.007,14.007,0,0,0-.349-4.082,1.441,1.441,0,0,0-1.493-.842,1.5,1.5,0,0,0-1.525.842,12.889,12.889,0,0,0-.381,4.082v19.029A12.325,12.325,0,0,0,51.25-9.98a1.464,1.464,0,0,0,1.493.905A1.477,1.477,0,0,0,54.252-9.9a10.767,10.767,0,0,0,.365-3.558ZM84.353-44.528l-.222,4.011a10.353,10.353,0,0,1,3.558-3.58,9.225,9.225,0,0,1,4.7-1.193,9.107,9.107,0,0,1,8.1,4.773,11.573,11.573,0,0,1,3.653-3.58,8.747,8.747,0,0,1,4.511-1.193,8.855,8.855,0,0,1,5.416,1.588,6.994,6.994,0,0,1,2.748,3.892,32.742,32.742,0,0,1,.6,7.481V-2.372H104.97v-27.48a34.6,34.6,0,0,0-.365-6.687,1.612,1.612,0,0,0-1.7-1.287,1.678,1.678,0,0,0-1.763,1.271,31.865,31.865,0,0,0-.4,6.7v27.48H88.292V-29.152a49.078,49.078,0,0,0-.3-7.434,1.528,1.528,0,0,0-1.668-1.239,1.92,1.92,0,0,0-1.461.651,2.514,2.514,0,0,0-.667,1.588q-.064.937-.064,3.987V-2.372H71.677V-44.528Zm50.162,0-.222,4.011a10.353,10.353,0,0,1,3.558-3.58,9.225,9.225,0,0,1,4.7-1.193,9.107,9.107,0,0,1,8.1,4.773,11.573,11.573,0,0,1,3.653-3.58,8.747,8.747,0,0,1,4.511-1.193,8.855,8.855,0,0,1,5.416,1.588,6.994,6.994,0,0,1,2.748,3.892,32.742,32.742,0,0,1,.6,7.481V-2.372H155.132v-27.48a34.6,34.6,0,0,0-.365-6.687,1.612,1.612,0,0,0-1.7-1.287,1.678,1.678,0,0,0-1.763,1.271,31.866,31.866,0,0,0-.4,6.7v27.48H138.454V-29.152a49.077,49.077,0,0,0-.3-7.434,1.528,1.528,0,0,0-1.668-1.239,1.92,1.92,0,0,0-1.461.651,2.514,2.514,0,0,0-.667,1.588q-.064.937-.064,3.987V-2.372H121.839V-44.528ZM201.069-22.7H184.454v9.117a10.122,10.122,0,0,0,.413,3.685,1.6,1.6,0,0,0,1.588.826,1.927,1.927,0,0,0,1.954-1.1,11.99,11.99,0,0,0,.492-4.241v-5.559h12.167v3.113a27.883,27.883,0,0,1-.492,6,12.22,12.22,0,0,1-2.3,4.479A11.215,11.215,0,0,1,193.683-2.8a17.769,17.769,0,0,1-6.973,1.191,20.252,20.252,0,0,1-7.18-1.175,11.493,11.493,0,0,1-4.845-3.224,11.653,11.653,0,0,1-2.4-4.511,29.123,29.123,0,0,1-.667-7.164V-29.978a20.935,20.935,0,0,1,1.493-8.72,10.254,10.254,0,0,1,4.892-4.892,17.249,17.249,0,0,1,7.815-1.7,17.477,17.477,0,0,1,8.911,2.049,11.27,11.27,0,0,1,4.924,5.432,25.466,25.466,0,0,1,1.414,9.515ZM188.2-29.565v-3.082a15.532,15.532,0,0,0-.349-4.225,1.381,1.381,0,0,0-1.43-.953q-1.334,0-1.652.81a16.87,16.87,0,0,0-.318,4.368v3.082ZM218.1-44.528l-.508,5.544q2.8-5.956,8.1-6.306v14.836a10.752,10.752,0,0,0-5.178.953,4,4,0,0,0-2.033,2.653,47.559,47.559,0,0,0-.381,7.831V-2.372H205.263V-44.528Zm38.821,15.916h-12.1v-4.861a9.536,9.536,0,0,0-.413-3.447,1.525,1.525,0,0,0-1.525-.905,1.493,1.493,0,0,0-1.493.794A10.177,10.177,0,0,0,241-33.473v19.887a7.757,7.757,0,0,0,.572,3.383,1.811,1.811,0,0,0,1.684,1.128,1.734,1.734,0,0,0,1.763-1.175,14.151,14.151,0,0,0,.461-4.448v-5.019h11.437a66.191,66.191,0,0,1-.365,7.577,12.146,12.146,0,0,1-2.128,5.178,11.369,11.369,0,0,1-4.686,4,16.848,16.848,0,0,1-7.148,1.35,17.032,17.032,0,0,1-8.609-1.858,10.235,10.235,0,0,1-4.5-5.21,26.987,26.987,0,0,1-1.318-9.515V-30.169a23.18,23.18,0,0,1,1.08-8.1,10.5,10.5,0,0,1,4.606-4.876,16.213,16.213,0,0,1,8.577-2.144,16.413,16.413,0,0,1,8.577,2.128,10.444,10.444,0,0,1,4.733,5.369A28.057,28.057,0,0,1,256.918-28.612ZM273.946-53.8v6.7H260.73v-6.7Zm0,9.276V-2.372H260.73V-44.528ZM290.02-28.2H277.98v-2.827a19.942,19.942,0,0,1,1.128-7.545,10.467,10.467,0,0,1,4.527-4.686,17.037,17.037,0,0,1,8.832-2.033q6.512,0,9.816,2.3a8.975,8.975,0,0,1,3.971,5.655q.667,3.352.667,13.8V-2.372H294.436V-6.128A8.339,8.339,0,0,1,291.4-2.739a8.369,8.369,0,0,1-4.432,1.13,10.842,10.842,0,0,1-6.179-1.89q-2.811-1.89-2.811-8.276v-3.463q0-4.733,1.493-6.449t7.4-4q6.322-2.478,6.767-3.336a8.864,8.864,0,0,0,.445-3.495,11.776,11.776,0,0,0-.492-4.3,1.69,1.69,0,0,0-1.636-1q-1.3,0-1.62.842a17.105,17.105,0,0,0-.318,4.368Zm4.066,5.782q-3.081,2.256-3.574,3.78a15.013,15.013,0,0,0-.492,4.384,12.771,12.771,0,0,0,.429,4.225,1.677,1.677,0,0,0,1.7.953,1.573,1.573,0,0,0,1.573-.747,12.06,12.06,0,0,0,.365-3.923ZM324.552-53.8V-2.372H311.337V-53.8Zm19.156,0H350.6V6.047h-6.894Zm26.4,0h9.467q9.467,0,12.818.731a8.824,8.824,0,0,1,5.464,3.733q2.113,3,2.113,9.578,0,6-1.493,8.069T392.6-29.216q3.971.985,5.337,2.637a7.875,7.875,0,0,1,1.7,3.034,47.916,47.916,0,0,1,.334,7.608V-2.372H387.549V-19.463q0-4.13-.651-5.115t-3.415-.985V-2.372H370.108ZM383.483-45v11.437a5.886,5.886,0,0,0,3.161-.619q.905-.619.905-4.019v-2.827q0-2.446-.874-3.209A4.97,4.97,0,0,0,383.483-45Zm50.353,22.3H417.22v9.117a10.123,10.123,0,0,0,.413,3.685,1.6,1.6,0,0,0,1.588.826,1.927,1.927,0,0,0,1.954-1.1,11.99,11.99,0,0,0,.492-4.241v-5.559h12.167v3.113a27.882,27.882,0,0,1-.492,6,12.22,12.22,0,0,1-2.3,4.479,11.215,11.215,0,0,1-4.59,3.574,17.77,17.77,0,0,1-6.973,1.191,20.252,20.252,0,0,1-7.18-1.175,11.493,11.493,0,0,1-4.845-3.224,11.654,11.654,0,0,1-2.4-4.511,29.124,29.124,0,0,1-.667-7.164V-29.978a20.934,20.934,0,0,1,1.493-8.72,10.254,10.254,0,0,1,4.892-4.892,17.249,17.249,0,0,1,7.815-1.7,17.477,17.477,0,0,1,8.911,2.049,11.27,11.27,0,0,1,4.924,5.432,25.466,25.466,0,0,1,1.414,9.515Zm-12.866-6.862v-3.082a15.53,15.53,0,0,0-.349-4.225,1.381,1.381,0,0,0-1.43-.953q-1.334,0-1.652.81a16.871,16.871,0,0,0-.318,4.368v3.082Zm43.268-1.493H452.864v-2.287a12.179,12.179,0,0,0-.334-3.7q-.334-.778-1.668-.778a1.9,1.9,0,0,0-1.62.715,3.535,3.535,0,0,0-.54,2.144,10.836,10.836,0,0,0,.27,2.843,4.5,4.5,0,0,0,1.62,1.986,35.243,35.243,0,0,0,5.544,3.145q5.591,2.732,7.338,5.146t1.747,7.021q0,5.146-1.334,7.767a8.87,8.87,0,0,1-4.463,4.035,18.242,18.242,0,0,1-7.545,1.414,20.775,20.775,0,0,1-8.371-1.525,9.144,9.144,0,0,1-4.781-4.13q-1.3-2.6-1.3-7.879v-2.033H448.8v2.669a14.037,14.037,0,0,0,.429,4.416,1.663,1.663,0,0,0,1.7,1.017,2.3,2.3,0,0,0,1.906-.683,5.1,5.1,0,0,0,.54-2.875q0-3.018-.7-3.78-.731-.762-7.466-4.511-5.655-3.177-6.894-5.766a14.117,14.117,0,0,1-1.239-6.147q0-5.051,1.334-7.45a8.664,8.664,0,0,1,4.527-3.7,19.536,19.536,0,0,1,7.418-1.3,21.042,21.042,0,0,1,7.132,1.064A10.952,10.952,0,0,1,462-41.415a7.55,7.55,0,0,1,1.906,3.24,23.513,23.513,0,0,1,.334,4.67ZM481.869-53.8v6.7H468.653v-6.7Zm0,9.276V-2.372H468.653V-44.528Zm33.8-9.276V-2.372H502.836V-5.43a13.266,13.266,0,0,1-3.876,2.865,9.9,9.9,0,0,1-4.257.955,8.648,8.648,0,0,1-5.178-1.573,7.007,7.007,0,0,1-2.811-3.637,25.91,25.91,0,0,1-.619-6.735V-33.282a26.555,26.555,0,0,1,.619-6.894,6.843,6.843,0,0,1,2.843-3.574,9.082,9.082,0,0,1,5.305-1.541,10.877,10.877,0,0,1,4.368.86,10.886,10.886,0,0,1,3.606,2.579V-53.8ZM502.836-33.918a8.018,8.018,0,0,0-.4-3.113,1.586,1.586,0,0,0-1.573-.794,1.6,1.6,0,0,0-1.541.715,7.958,7.958,0,0,0-.4,3.193v20.649a9.506,9.506,0,0,0,.381,3.383,1.459,1.459,0,0,0,1.461.81,1.632,1.632,0,0,0,1.652-.905,13.97,13.97,0,0,0,.413-4.432ZM549.345-22.7H532.73v9.117a10.122,10.122,0,0,0,.413,3.685,1.6,1.6,0,0,0,1.588.826,1.927,1.927,0,0,0,1.954-1.1,11.991,11.991,0,0,0,.492-4.241v-5.559h12.167v3.113a27.884,27.884,0,0,1-.492,6,12.22,12.22,0,0,1-2.3,4.479,11.215,11.215,0,0,1-4.59,3.574,17.77,17.77,0,0,1-6.973,1.191,20.252,20.252,0,0,1-7.18-1.175,11.493,11.493,0,0,1-4.845-3.224,11.654,11.654,0,0,1-2.4-4.511,29.124,29.124,0,0,1-.667-7.164V-29.978a20.934,20.934,0,0,1,1.493-8.72,10.254,10.254,0,0,1,4.892-4.892,17.249,17.249,0,0,1,7.815-1.7,17.477,17.477,0,0,1,8.911,2.049,11.271,11.271,0,0,1,4.924,5.432,25.466,25.466,0,0,1,1.414,9.515Zm-12.866-6.862v-3.082a15.531,15.531,0,0,0-.349-4.225,1.381,1.381,0,0,0-1.43-.953q-1.334,0-1.652.81a16.87,16.87,0,0,0-.318,4.368v3.082Zm30.116-14.963-.222,3.884a9.622,9.622,0,0,1,3.415-3.485,9.159,9.159,0,0,1,4.654-1.162,8.825,8.825,0,0,1,5.4,1.557,6.923,6.923,0,0,1,2.7,3.923,35.871,35.871,0,0,1,.6,7.894V-2.372H570.312v-29.2a27.154,27.154,0,0,0-.286-5.305q-.286-.953-1.588-.953a1.588,1.588,0,0,0-1.716,1.1,27.559,27.559,0,0,0-.349,5.861v28.5H553.538V-44.528Zm34.5-5.623v6.64h3.463v6.671H601.1v22.555q0,4.162.429,4.638t3.574.477v6.8H599.92a37.015,37.015,0,0,1-6.258-.365,6.672,6.672,0,0,1-3.3-1.684,5.6,5.6,0,0,1-1.779-3.018,53.505,53.505,0,0,1-.349-7.99V-36.84h-2.764v-6.671h2.764v-6.64ZM620.6-53.8v6.7H607.385v-6.7Zm0,9.276V-2.372H607.385V-44.528ZM636.675-28.2h-12.04v-2.827a19.941,19.941,0,0,1,1.128-7.545,10.468,10.468,0,0,1,4.527-4.686,17.037,17.037,0,0,1,8.832-2.033q6.513,0,9.816,2.3a8.976,8.976,0,0,1,3.971,5.655q.667,3.352.667,13.8V-2.372H641.091V-6.128a8.339,8.339,0,0,1-3.034,3.389,8.369,8.369,0,0,1-4.432,1.13,10.842,10.842,0,0,1-6.179-1.89q-2.811-1.89-2.812-8.276v-3.463q0-4.733,1.493-6.449t7.4-4q6.322-2.478,6.767-3.336a8.864,8.864,0,0,0,.445-3.495,11.777,11.777,0,0,0-.492-4.3,1.69,1.69,0,0,0-1.636-1q-1.3,0-1.62.842a17.1,17.1,0,0,0-.318,4.368Zm4.066,5.782q-3.081,2.256-3.574,3.78a15.014,15.014,0,0,0-.492,4.384,12.772,12.772,0,0,0,.429,4.225,1.677,1.677,0,0,0,1.7.953,1.573,1.573,0,0,0,1.573-.747,12.06,12.06,0,0,0,.365-3.923ZM671.208-53.8V-2.372H657.992V-53.8Z" transform="translate(963.228 1080.632)"/>
  </g>
</svg>
